<svg width="24" height="24" viewBox="0 0 24 24" xmlns="http://www.w3.org/2000/svg">
<path d="M5 18V7.5C5 7.22386 5.22386 7 5.5 7H18.5C18.7761 7 19 7.22386 19 7.5V18C19 19.6569 17.6569 21 16 21H8C6.34315 21 5 19.6569 5 18Z" fill="none" stroke-width="1.5"/>
<path d="M8.25 9C8.25 9.41421 8.58579 9.75 9 9.75C9.41421 9.75 9.75 9.41421 9.75 9H8.25ZM14.25 9C14.25 9.41421 14.5858 9.75 15 9.75C15.4142 9.75 15.75 9.41421 15.75 9H14.25ZM9.75 9V6H8.25V9H9.75ZM14.25 6V9H15.75V6H14.25ZM12 3.75C13.2426 3.75 14.25 4.75736 14.25 6H15.75C15.75 3.92893 14.0711 2.25 12 2.25V3.75ZM9.75 6C9.75 4.75736 10.7574 3.75 12 3.75V2.25C9.92893 2.25 8.25 3.92893 8.25 6H9.75Z" stroke="none" />
</svg>
